<?xml version="1.0" encoding="UTF-8"?>
<svg id="Layer_1" data-name="Layer 1" xmlns="http://www.w3.org/2000/svg" viewBox="0 0 1024 415.57">
  <defs>
    <style>
      .cls-1 {
        fill: #fff;
      }
    </style>
  </defs>
  <path class="cls-1" d="M197.97,222.17l25.36-14.74c12.15-7.06,11.89-24.69-.46-31.39l-34.94-18.96,61.3-35.16-34.21-18.73c-19.96-10.93-44.22-10.49-63.77,1.17l-89.66,53.44,62.54,35.88-35.16,20.44c-12,6.98-11.75,24.4,.46,31.03l34.71,18.83v-70.3h0s63.62-36.49,63.62-36.49v70.33l-115.34,66.17,34.21,18.73c19.96,10.93,44.22,10.49,63.77-1.17l89.66-53.44-62.08-35.61Z"/>
  <g>
    <path class="cls-1" d="M287.32,252.03v-106.95h20.2v106.95h-20.2Z"/>
    <path class="cls-1" d="M325.19,252.03v-80.21h17.98v26.59h2.52v53.62h-20.5Zm54.81,0v-37.88c0-1.83-.1-4.17-.3-7.02-.2-2.85-.82-5.71-1.86-8.57-1.04-2.87-2.74-5.28-5.09-7.21-2.35-1.93-5.68-2.9-9.99-2.9-1.73,0-3.59,.27-5.57,.82s-3.84,1.59-5.57,3.16c-1.74,1.56-3.16,3.85-4.27,6.87-1.11,3.02-1.67,7.03-1.67,12.04l-11.58-5.5c0-6.34,1.29-12.28,3.86-17.83s6.45-10.03,11.62-13.44,11.7-5.13,19.57-5.13c6.29,0,11.41,1.07,15.38,3.19,3.96,2.13,7.05,4.83,9.25,8.1,2.2,3.26,3.78,6.67,4.72,10.21s1.51,6.77,1.71,9.69,.3,5.05,.3,6.39v45.01h-20.5Z"/>
    <path class="cls-1" d="M454.04,254.26c-8.32,0-15.45-1.86-21.39-5.57-5.94-3.71-10.5-8.76-13.66-15.15-3.17-6.39-4.76-13.59-4.76-21.61s1.65-15.38,4.94-21.76c3.29-6.39,7.93-11.41,13.93-15.07s13.07-5.5,21.24-5.5c9.46,0,17.39,2.39,23.8,7.17,6.42,4.78,10.51,11.3,12.29,19.57l-20.2,5.35c-1.19-4.16-3.26-7.4-6.2-9.73-2.94-2.33-6.27-3.49-9.99-3.49-4.26,0-7.75,1.03-10.47,3.08-2.72,2.06-4.73,4.85-6.02,8.4-1.29,3.54-1.93,7.53-1.93,11.99,0,6.98,1.55,12.64,4.64,16.97,3.09,4.33,7.69,6.5,13.78,6.5,4.56,0,8.02-1.04,10.4-3.12,2.38-2.08,4.16-5.05,5.35-8.91l20.65,4.31c-2.28,8.51-6.58,15.07-12.92,19.68-6.34,4.6-14.16,6.91-23.47,6.91Z"/>
    <path class="cls-1" d="M539.51,254.26c-8.07,0-15.15-1.81-21.24-5.42-6.09-3.61-10.83-8.6-14.22-14.97-3.39-6.36-5.09-13.68-5.09-21.95s1.74-15.73,5.2-22.1c3.46-6.36,8.24-11.33,14.33-14.89,6.09-3.57,13.1-5.35,21.02-5.35s15.16,1.81,21.28,5.42c6.11,3.61,10.88,8.6,14.3,14.97,3.41,6.36,5.13,13.68,5.13,21.95s-1.72,15.66-5.16,22.02-8.22,11.34-14.34,14.93-13.18,5.39-21.2,5.39Zm0-18.86c6.49,0,11.33-2.19,14.52-6.58,3.19-4.38,4.79-10.01,4.79-16.89s-1.62-12.83-4.87-17.08c-3.24-4.26-8.06-6.39-14.44-6.39-4.41,0-8.02,.99-10.84,2.97-2.82,1.98-4.91,4.73-6.28,8.24-1.36,3.52-2.04,7.6-2.04,12.26,0,7.18,1.62,12.89,4.86,17.12,3.25,4.23,8.01,6.35,14.3,6.35Z"/>
    <path class="cls-1" d="M607.71,252.03v-106.95h65.36v20.2h-45.16v23.17h36.24v20.2h-36.24v43.37h-20.2Z"/>
    <path class="cls-1" d="M683.47,160.68v-17.83h20.2v17.83h-20.2Zm0,91.35v-80.21h20.2v80.21h-20.2Z"/>
    <path class="cls-1" d="M722.98,252.03v-109.18h20.2v109.18h-20.2Z"/>
    <path class="cls-1" d="M762.49,160.68v-17.83h20.2v17.83h-20.2Zm0,91.35v-80.21h20.2v80.21h-20.2Z"/>
    <path class="cls-1" d="M800.36,252.03v-80.21h17.98v26.59h2.52v53.62h-20.5Zm54.81,0v-37.88c0-1.83-.1-4.17-.3-7.02-.2-2.85-.82-5.71-1.86-8.57-1.04-2.87-2.74-5.28-5.09-7.21-2.35-1.93-5.68-2.9-9.99-2.9-1.73,0-3.59,.27-5.57,.82s-3.84,1.59-5.57,3.16c-1.74,1.56-3.16,3.85-4.27,6.87-1.11,3.02-1.67,7.03-1.67,12.04l-11.58-5.5c0-6.34,1.29-12.28,3.86-17.83,2.57-5.55,6.45-10.03,11.62-13.44s11.7-5.13,19.57-5.13c6.29,0,11.41,1.07,15.38,3.19,3.96,2.13,7.05,4.83,9.25,8.1,2.2,3.26,3.78,6.67,4.72,10.21s1.51,6.77,1.71,9.69,.3,5.05,.3,6.39v45.01h-20.5Z"/>
    <path class="cls-1" d="M923.06,254.26c-7.38,0-13.84-1.86-19.38-5.57-5.55-3.71-9.87-8.76-12.96-15.15-3.09-6.39-4.64-13.59-4.64-21.61s1.57-15.44,4.72-21.8c3.14-6.36,7.56-11.37,13.26-15.04,5.69-3.66,12.37-5.5,20.05-5.5s14.04,1.86,19.24,5.57c5.2,3.72,9.13,8.77,11.81,15.15,2.67,6.39,4.01,13.59,4.01,21.61s-1.35,15.22-4.05,21.61c-2.7,6.39-6.72,11.44-12.07,15.15-5.35,3.72-12.01,5.57-19.98,5.57Zm1.78,35.65c-4.56,0-8.89-.73-13-2.19-4.11-1.46-7.79-3.49-11.03-6.09-3.25-2.6-5.88-5.63-7.91-9.1l18.71-9.06c1.29,2.38,3.13,4.18,5.54,5.42,2.4,1.24,5.01,1.85,7.84,1.85,3.02,0,5.87-.51,8.54-1.52,2.67-1.02,4.81-2.53,6.42-4.53,1.61-2,2.36-4.49,2.26-7.46v-23.32h2.53v-62.09h17.68v85.71c0,1.98-.08,3.85-.26,5.61-.17,1.75-.48,3.5-.93,5.23-1.29,4.9-3.68,8.94-7.17,12.11-3.49,3.17-7.76,5.53-12.81,7.09-5.05,1.56-10.52,2.34-16.41,2.34Zm1.49-53.62c4.51,0,8.11-1.01,10.81-3.04,2.69-2.03,4.64-4.88,5.83-8.54s1.78-7.92,1.78-12.77-.59-9.11-1.78-12.77-3.08-6.51-5.68-8.54-6-3.05-10.21-3.05c-4.51,0-8.21,1.11-11.1,3.31-2.9,2.21-5.04,5.15-6.42,8.84-1.39,3.69-2.08,7.76-2.08,12.22s.67,8.6,2,12.29c1.34,3.69,3.39,6.62,6.17,8.8,2.77,2.18,6.34,3.26,10.7,3.26Z"/>
  </g>
</svg>